<svg viewBox="0 0 1080 1080" xmlns="http://www.w3.org/2000/svg" xml:space="preserve" style="fill-rule:evenodd;clip-rule:evenodd;stroke-linejoin:round;stroke-miterlimit:2"><path style="fill:#255fdb" d="M0 0h1080v1080H0z"/><path d="M.458-.518a.09.09 0 0 0-.037-.067.145.145 0 0 0-.087-.024.167.167 0 0 0-.064.011.089.089 0 0 0-.04.029.075.075 0 0 0-.014.042c0 .013.003.024.009.034.006.01.014.018.025.025a.182.182 0 0 0 .037.018.482.482 0 0 0 .045.013l.065.015a.493.493 0 0 1 .087.029.24.24 0 0 1 .069.044c.02.017.035.037.046.061a.2.2 0 0 1 .016.08.196.196 0 0 1-.13.191.386.386 0 0 1-.152.027.404.404 0 0 1-.154-.027.218.218 0 0 1-.101-.08.236.236 0 0 1-.038-.131h.149a.099.099 0 0 0 .021.06.105.105 0 0 0 .05.037.196.196 0 0 0 .071.012.198.198 0 0 0 .068-.011.108.108 0 0 0 .045-.032.076.076 0 0 0 .016-.046.058.058 0 0 0-.015-.041.098.098 0 0 0-.042-.029.356.356 0 0 0-.067-.021l-.079-.02a.328.328 0 0 1-.145-.07.161.161 0 0 1-.053-.128c0-.044.012-.083.035-.115A.243.243 0 0 1 .193-.71a.353.353 0 0 1 .142-.027c.054 0 .101.009.141.027.04.019.072.045.094.078a.202.202 0 0 1 .035.114H.458Z" style="fill:#f5f5f5;fill-rule:nonzero" transform="matrix(200 0 0 200 327.074 612.727)"/><path d="m.195-.727.175.552h.007l.176-.552h.171L.473 0H.275L.024-.727h.171Z" style="fill:#f5f5f5;fill-rule:nonzero" transform="matrix(200 0 0 200 458.04 612.727)"/><path d="M.546-.492a.162.162 0 0 0-.021-.046.14.14 0 0 0-.077-.056.193.193 0 0 0-.055-.007.178.178 0 0 0-.098.027.182.182 0 0 0-.065.081.31.31 0 0 0-.024.129c0 .05.008.093.023.129a.173.173 0 0 0 .166.109.191.191 0 0 0 .089-.019.133.133 0 0 0 .057-.053.155.155 0 0 0 .019-.08l.031.004H.404v-.115h.305v.092a.32.32 0 0 1-.041.164.273.273 0 0 1-.112.106.34.34 0 0 1-.162.037.354.354 0 0 1-.18-.045.3.3 0 0 1-.12-.129.427.427 0 0 1-.044-.199c0-.059.009-.112.026-.158a.312.312 0 0 1 .181-.191.36.36 0 0 1 .249-.007.303.303 0 0 1 .094.05.266.266 0 0 1 .102.177H.546Z" style="fill:#f5f5f5;fill-rule:nonzero" transform="matrix(200 0 0 200 600.767 612.727)"/></svg>